<svg xmlns="http://www.w3.org/2000/svg" width="18.791" height="19.839" viewBox="0 0 18.791 19.839">
  <g id="Iconly_Broken_Home" data-name="Iconly/Broken/Home" transform="translate(-2.5 -2.004)">
    <g id="Home" transform="translate(2.5 2.004)">
      <path id="Path_34076" d="M7.922,18.257h-4a2.365,2.365,0,0,1-2.357-2.348V7.953A1.47,1.47,0,0,1,2.1,6.831l.7-.522a.783.783,0,0,0-.9-1.243h0L1.174,5.6A3.026,3.026,0,0,0,0,7.953v7.965a3.93,3.93,0,0,0,3.922,3.922h4a.783.783,0,0,0,0-1.565Z" fill="#000"/>
      <path id="Path_34077" d="M18.791,7.935a3.052,3.052,0,0,0-1.139-2.348L11.643.8A3.609,3.609,0,0,0,7.122.8l-1.9,1.383a.8.8,0,1,0,.93,1.3l1.93-1.443a2.052,2.052,0,0,1,2.609,0L16.7,6.822a1.47,1.47,0,0,1,.557,1.13v7.965A2.348,2.348,0,0,1,14.9,18.266H13.122a.33.33,0,0,1-.33-.33V14.344a2.078,2.078,0,0,0-2.07-2.078H8.113a2.078,2.078,0,0,0-2.078,2.078v1.374a.783.783,0,1,0,1.565,0V14.344a.5.5,0,0,1,.5-.513h2.609a.5.5,0,0,1,.5.5h0v3.6a1.9,1.9,0,0,0,1.9,1.9h1.739a3.922,3.922,0,0,0,3.922-3.922Z" fill="#000"/>
    </g>
  </g>
</svg>
