<svg xmlns="http://www.w3.org/2000/svg" xmlns:xlink="http://www.w3.org/1999/xlink" width="24" height="24" viewBox="0 0 24 24">
  <defs>
    <clipPath id="clip-path">
      <rect id="Rectangle_1705" data-name="Rectangle 1705" width="23.027" height="20.961" fill="#fff" stroke="#fff" stroke-width="0.23"/>
    </clipPath>
  </defs>
  <g id="Group_60" data-name="Group 60" transform="translate(-595.836 -642.575)">
    <rect id="Rectangle_47" data-name="Rectangle 47" width="24" height="24" transform="translate(595.836 642.575)" fill="none"/>
    <g id="Group_445" data-name="Group 445" transform="translate(596.323 644.008)">
      <g id="Group_445-2" data-name="Group 445" clip-path="url(#clip-path)">
        <path id="Path_321" data-name="Path 321" d="M0,9A6.13,6.13,0,0,1,.373,8,2.733,2.733,0,0,1,2.909,6.593q2.764,0,5.529,0h.316c0-.114,0-.2,0-.289,0-1.229-.017-2.458.011-3.686A2.706,2.706,0,0,1,11.408.013C13.648-.008,15.888,0,18.128,0c.749,0,1.5-.01,2.247.006A2.683,2.683,0,0,1,23.005,2.6q.044,3.359,0,6.72a2.7,2.7,0,0,1-2.763,2.6c-1.94.008-3.881,0-5.821,0-.622,0-1.244.01-1.865-.007a.73.73,0,0,0-.557.217c-.72.667-1.443,1.331-2.179,1.979a.983.983,0,0,1-.511.228.529.529,0,0,1-.544-.491,2.433,2.433,0,0,1-.009-.269q0-2.776,0-5.551V7.751c-.088-.005-.154-.013-.219-.013q-2.843,0-5.686,0A1.614,1.614,0,0,0,1.2,8.965a2.146,2.146,0,0,0-.062.555q-.006,3.045,0,6.091A1.626,1.626,0,0,0,2.9,17.369q3.967,0,7.934,0a.962.962,0,0,1,.7.28c.507.478,1.022.946,1.583,1.463v-.277q0-2.54,0-5.079a.578.578,0,0,1,.534-.631.564.564,0,0,1,.6.517c.006.074.005.15.005.225q0,3.18,0,6.361a2.221,2.221,0,0,1-.009.247.54.54,0,0,1-.8.422A1.346,1.346,0,0,1,13.2,20.7c-.741-.677-1.477-1.36-2.224-2.03a.611.611,0,0,0-.372-.145c-2.57-.008-5.139,0-7.709-.008A2.738,2.738,0,0,1,.246,16.89,5.381,5.381,0,0,1,0,16.1V9m9.891,3.487c.47-.42.914-.787,1.324-1.19a1.862,1.862,0,0,1,1.42-.525c2.495.019,4.99.011,7.485.008a2.149,2.149,0,0,0,.555-.061,1.609,1.609,0,0,0,1.2-1.705q0-3.057,0-6.114a2.188,2.188,0,0,0-.061-.555,1.593,1.593,0,0,0-1.679-1.206q-4.226,0-8.451,0A1.652,1.652,0,0,0,9.891,2.926q0,4.641,0,9.283v.278" transform="translate(0 0)" fill="#fff" stroke="#fff" stroke-width="0.23"/>
        <path id="Path_322" data-name="Path 322" d="M47.206,149.289a.587.587,0,0,1,.6.563.595.595,0,0,1-1.188.019.58.58,0,0,1,.583-.582" transform="translate(-42.918 -137.428)" fill="#fff" stroke="#fff" stroke-width="0.23"/>
        <path id="Path_323" data-name="Path 323" d="M72.216,149.292a.585.585,0,0,1,.587.579.593.593,0,0,1-.612.558.584.584,0,0,1-.573-.572.576.576,0,0,1,.6-.566" transform="translate(-65.929 -137.43)" fill="#fff" stroke="#fff" stroke-width="0.23"/>
        <path id="Path_324" data-name="Path 324" d="M180.581,40.835a1.631,1.631,0,0,1,1.436.992,1.409,1.409,0,0,1-.159,1.581,7.55,7.55,0,0,1-.69.673.8.8,0,0,0-.3.454.534.534,0,0,1-.619.394.552.552,0,0,1-.488-.552,1.432,1.432,0,0,1,.569-1.075c.153-.143.311-.281.469-.418s.294-.3.2-.544a.6.6,0,0,0-.543-.369.6.6,0,0,0-.516.4,1.3,1.3,0,0,0-.038.22.566.566,0,0,1-1.129-.07,1.73,1.73,0,0,1,1.807-1.689" transform="translate(-164.57 -37.591)" fill="#fff" stroke="#fff" stroke-width="0.23"/>
        <path id="Path_325" data-name="Path 325" d="M191.643,99.774a.569.569,0,0,1,.548-.568.571.571,0,1,1-.009,1.141.562.562,0,0,1-.539-.573" transform="translate(-176.417 -91.325)" fill="#fff" stroke="#fff" stroke-width="0.23"/>
      </g>
    </g>
  </g>
</svg>
