<svg xmlns="http://www.w3.org/2000/svg" width="18" height="20" viewBox="0 0 18 20">
  <g id="Iconly_Broken_Document" data-name="Iconly/Broken/Document" transform="translate(-3 -2)">
    <g id="Document" transform="translate(3 2)">
      <path id="Path_196" data-name="Path 196" d="M12.853,0C16.067,0,17.991,1.951,18,5.21h0V14.79C18,18.049,16.084,20,12.862,20H10.006a.734.734,0,0,1,0-1.457h2.848c2.456,0,3.692-1.263,3.692-3.753h0V5.21c0-2.49-1.237-3.753-3.692-3.753H5.138c-2.456,0-3.7,1.263-3.7,3.753h0V14.79c0,2.49,1.245,3.753,3.7,3.753a.734.734,0,0,1,0,1.457C1.925,20,0,18.049,0,14.79H0V5.21C0,1.943,1.925,0,5.138,0h7.716Zm-.261,13.51a.724.724,0,0,1,0,1.448H5.382a.724.724,0,0,1,0-1.448h7.21Zm0-4.238a.719.719,0,0,1,.692.339.742.742,0,0,1,0,.779.719.719,0,0,1-.692.339H5.382a.734.734,0,0,1,0-1.457h7.21ZM8.134,5.042a.734.734,0,0,1,0,1.457H5.39a.734.734,0,0,1,0-1.457H8.134Z" fill="#fff"/>
    </g>
  </g>
</svg>
